<svg width="42" height="42" viewBox="0 0 42 42" fill="none" xmlns="http://www.w3.org/2000/svg">
<path d="M1.26875 37.7217V3.95015C1.26875 2.30443 2.60288 0.970306 4.2486 0.970306H38.0202C39.6659 0.970306 41 2.30443 41 3.95015V37.7217C41 39.3674 39.6659 40.7016 38.0202 40.7016H4.2486C2.60287 40.7016 1.26875 39.3674 1.26875 37.7217Z" fill="#CCCCCC" stroke="#717171" stroke-width="0.993281"/>
<path d="M3.25531 36.0331V5.63874C3.25531 4.15759 4.45601 2.95688 5.93716 2.95688H36.3316C37.8127 2.95688 39.0134 4.15758 39.0134 5.63873V36.0331C39.0134 37.5143 37.8127 38.715 36.3316 38.715H5.93717C4.45602 38.715 3.25531 37.5143 3.25531 36.0331Z" stroke="#717171" stroke-width="0.893953"/>
<path d="M7.22844 10.9031H35.0403" stroke="#444444" stroke-width="2.97984"/>
<path d="M7.22844 20.8359H35.0403" stroke="#444444" stroke-width="2.97984"/>
<path d="M7.22844 30.7687H35.0403" stroke="#444444" stroke-width="2.97984"/>
</svg>
